<?xml version="1.0" standalone="no"?>
<!DOCTYPE svg PUBLIC "-//W3C//DTD SVG 20010904//EN"
 "http://www.w3.org/TR/2001/REC-SVG-20010904/DTD/svg10.dtd">
<svg version="1.0" xmlns="http://www.w3.org/2000/svg"
 width="200.000000pt" height="200.000000pt" viewBox="0 0 200.000000 200.000000"
 preserveAspectRatio="xMidYMid meet">

<g transform="translate(0.000000,200.000000) scale(0.100000,-0.100000)"
fill="#000000" stroke="none">
<path d="M877 1756 c-143 -60 -217 -170 -217 -322 0 -86 30 -161 90 -227 137
-150 363 -150 500 0 69 75 93 144 88 248 -5 91 -26 146 -83 213 -86 99 -256
139 -378 88z m252 -70 c100 -51 158 -156 149 -270 -19 -235 -302 -342 -471
-178 -53 51 -79 105 -85 178 -11 136 78 261 211 295 52 13 143 1 196 -25z"/>
<path d="M840 1009 c-195 -50 -353 -182 -436 -364 -39 -85 -53 -148 -60 -273
-6 -100 -5 -114 11 -132 18 -20 31 -20 646 -20 l629 0 16 26 c14 21 16 41 11
127 -11 166 -46 273 -132 393 -148 207 -434 309 -685 243z m284 -54 c174 -37
329 -158 404 -316 48 -101 62 -162 62 -274 l0 -85 -590 0 -590 0 0 85 c0 112
14 173 62 274 115 240 387 372 652 316z"/>
</g>
</svg>
